<svg xmlns="http://www.w3.org/2000/svg" xmlns:xlink="http://www.w3.org/1999/xlink" width="472.363" height="72.961"><image overflow="visible" width="229" height="544" xlink:href="lush_txt.png" transform="translate(-858.6455 -190.8525)"/><g fill="none" stroke="#000" stroke-miterlimit="10"><path d="M-264.455-189.915h14.06v58.616h28.596v11.78h-42.655v-70.396zM-216.006-151.154v-38.761h14.061v39.996c0 14.63 5.13 19.57 13.3 19.57 8.36 0 13.681-4.94 13.681-19.57v-39.996h13.49v38.761c0 23.37-9.976 32.965-27.171 32.965-17.1.001-27.361-9.595-27.361-32.965zM-152.736-128.449l8.075-9.69c5.035 4.655 11.685 7.79 17.86 7.79 7.314 0 11.21-3.135 11.21-8.075 0-5.225-4.275-6.84-10.545-9.5l-9.405-3.99c-7.125-2.945-14.25-8.645-14.25-18.905 0-11.495 10.069-20.33 24.32-20.33 8.17 0 16.34 3.23 22.04 9.025l-7.125 8.835c-4.466-3.705-9.12-5.795-14.915-5.795-6.176 0-10.07 2.755-10.07 7.41 0 5.035 4.939 6.84 10.925 9.215l9.215 3.895c8.551 3.515 14.155 8.93 14.155 19.095 0 11.495-9.595 21.28-25.84 21.28-9.405.001-18.81-3.705-25.65-10.26zM-91.177-189.915h14.06v27.74h26.601v-27.74h13.965v70.396h-13.965v-30.4h-26.601v30.4h-14.06v-70.396z"/></g><path d="M-264.455-96.581h14.06v58.616h28.596v11.78h-42.655v-70.396zM-216.006-57.82v-38.761h14.061v39.996c0 14.63 5.13 19.57 13.3 19.57 8.36 0 13.681-4.94 13.681-19.57v-39.996h13.49v38.761c0 23.37-9.976 32.965-27.171 32.965-17.1 0-27.361-9.595-27.361-32.965zM-152.736-35.115l8.075-9.69c5.035 4.655 11.685 7.79 17.86 7.79 7.314 0 11.21-3.135 11.21-8.075 0-5.225-4.275-6.84-10.545-9.5l-9.405-3.99c-7.125-2.945-14.25-8.645-14.25-18.905 0-11.495 10.069-20.33 24.32-20.33 8.17 0 16.34 3.23 22.04 9.025l-7.125 8.835c-4.466-3.705-9.12-5.795-14.915-5.795-6.176 0-10.07 2.755-10.07 7.41 0 5.035 4.939 6.84 10.925 9.215l9.215 3.895c8.551 3.515 14.155 8.93 14.155 19.095 0 11.495-9.595 21.28-25.84 21.28-9.405 0-18.81-3.705-25.65-10.26zM-91.177-96.581h14.06v27.74h26.601v-27.74h13.965v70.396h-13.965v-30.4h-26.601v30.4h-14.06v-70.396z"/><g fill="none" stroke="#000" stroke-miterlimit="10"><path d="M-264.455-3.248h14.06v58.616h28.596v11.78h-42.655V-3.248zM-216.006 35.513V-3.248h14.061v39.996c0 14.63 5.13 19.57 13.3 19.57 8.36 0 13.681-4.94 13.681-19.57V-3.248h13.49v38.761c0 23.37-9.976 32.965-27.171 32.965-17.1.001-27.361-9.595-27.361-32.965zM-152.736 58.218l8.075-9.69c5.035 4.655 11.685 7.79 17.86 7.79 7.314 0 11.21-3.135 11.21-8.075 0-5.225-4.275-6.84-10.545-9.5l-9.405-3.99c-7.125-2.945-14.25-8.645-14.25-18.905 0-11.495 10.069-20.33 24.32-20.33 8.17 0 16.34 3.23 22.04 9.025l-7.125 8.835c-4.466-3.705-9.12-5.795-14.915-5.795-6.176 0-10.07 2.755-10.07 7.41 0 5.035 4.939 6.84 10.925 9.215l9.215 3.895c8.551 3.515 14.155 8.93 14.155 19.095 0 11.495-9.595 21.28-25.84 21.28-9.405.001-18.81-3.705-25.65-10.26zM-91.177-3.248h14.06v27.74h26.601v-27.74h13.965v70.396h-13.965v-30.4h-26.601v30.4h-14.06V-3.248z"/></g><g><path d="M-264.455 90.086h14.06v58.616h28.596v11.779h-42.655V90.086zM-216.006 128.847V90.086h14.061v39.995c0 14.631 5.13 19.57 13.3 19.57 8.36 0 13.681-4.939 13.681-19.57V90.086h13.49v38.761c0 23.37-9.976 32.965-27.171 32.965-17.1 0-27.361-9.595-27.361-32.965zM-152.736 151.552l8.075-9.689c5.035 4.654 11.685 7.789 17.86 7.789 7.314 0 11.21-3.135 11.21-8.074 0-5.226-4.275-6.84-10.545-9.5l-9.405-3.99c-7.125-2.945-14.25-8.646-14.25-18.906 0-11.494 10.069-20.33 24.32-20.33 8.17 0 16.34 3.23 22.04 9.025l-7.125 8.836c-4.466-3.705-9.12-5.796-14.915-5.796-6.176 0-10.07 2.755-10.07 7.41 0 5.035 4.939 6.841 10.925 9.216l9.215 3.895c8.551 3.516 14.155 8.93 14.155 19.096 0 11.494-9.595 21.279-25.84 21.279-9.405-.001-18.81-3.707-25.65-10.261zM-91.177 90.086h14.06v27.74h26.601v-27.74h13.965v70.396h-13.965v-30.4h-26.601v30.4h-14.06V90.086z"/></g><g fill="none" stroke="#000" stroke-miterlimit="10"><path d="M-264.455 183.419h14.06v58.616h28.596v11.78h-42.655v-70.396zM-216.006 222.181v-38.762h14.061v39.996c0 14.631 5.13 19.57 13.3 19.57 8.36 0 13.681-4.939 13.681-19.57v-39.996h13.49v38.762c0 23.369-9.976 32.965-27.171 32.965-17.1 0-27.361-9.596-27.361-32.965zM-152.736 244.886l8.075-9.69c5.035 4.655 11.685 7.79 17.86 7.79 7.314 0 11.21-3.135 11.21-8.075 0-5.226-4.275-6.84-10.545-9.5l-9.405-3.99c-7.125-2.944-14.25-8.646-14.25-18.905 0-11.495 10.069-20.33 24.32-20.33 8.17 0 16.34 3.23 22.04 9.025l-7.125 8.835c-4.466-3.705-9.12-5.796-14.915-5.796-6.176 0-10.07 2.756-10.07 7.41 0 5.035 4.939 6.841 10.925 9.216l9.215 3.896c8.551 3.515 14.155 8.93 14.155 19.095 0 11.495-9.595 21.28-25.84 21.28-9.405-.001-18.81-3.707-25.65-10.261zM-91.177 183.419h14.06v27.74h26.601v-27.74h13.965v70.396h-13.965v-30.4h-26.601v30.4h-14.06v-70.396z"/></g><g fill="none" stroke="#000" stroke-miterlimit="10"><path d="M-264.455 276.753h14.06v58.615h28.596v11.781h-42.655v-70.396zM-216.006 315.514v-38.761h14.061v39.996c0 14.63 5.13 19.57 13.3 19.57 8.36 0 13.681-4.94 13.681-19.57v-39.996h13.49v38.761c0 23.37-9.976 32.966-27.171 32.966-17.1-.001-27.361-9.596-27.361-32.966zM-152.736 338.219l8.075-9.69c5.035 4.655 11.685 7.791 17.86 7.791 7.314 0 11.21-3.136 11.21-8.076 0-5.225-4.275-6.84-10.545-9.5l-9.405-3.99c-7.125-2.944-14.25-8.645-14.25-18.904 0-11.496 10.069-20.33 24.32-20.33 8.17 0 16.34 3.229 22.04 9.024l-7.125 8.835c-4.466-3.705-9.12-5.795-14.915-5.795-6.176 0-10.07 2.756-10.07 7.41 0 5.035 4.939 6.84 10.925 9.215l9.215 3.896c8.551 3.515 14.155 8.931 14.155 19.095 0 11.496-9.595 21.281-25.84 21.281-9.405-.002-18.81-3.707-25.65-10.262zM-91.177 276.753h14.06v27.74h26.601v-27.74h13.965v70.396h-13.965v-30.4h-26.601v30.4h-14.06v-70.396z"/></g><image overflow="visible" width="473" height="72" xlink:href="bestitem_txt.png" transform="translate(.0449 -108.3691)"/><g><path d="M0 1.235h23.274c14.44 0 25.461 4.275 25.461 17.385 0 6.46-3.61 13.11-9.596 15.2v.475C46.74 36.1 52.345 41.42 52.345 50.92c0 14.155-11.78 20.71-27.266 20.71H0V1.235zm22.229 28.69c8.931 0 12.825-3.61 12.825-9.215 0-6.175-4.18-8.645-12.635-8.645h-8.36v17.86h8.17zm1.616 30.876c9.596 0 14.82-3.42 14.82-10.735 0-6.84-5.13-9.785-14.82-9.785H14.06v20.521h9.785zM62.32 1.235h43.13v11.78H76.38V29.26h24.7v11.78h-24.7v18.81h30.115v11.78H62.32V1.235zM113.714 62.701l8.075-9.69c5.035 4.655 11.685 7.79 17.86 7.79 7.314 0 11.21-3.135 11.21-8.075 0-5.225-4.275-6.84-10.545-9.5l-9.405-3.99c-7.125-2.945-14.25-8.645-14.25-18.905 0-11.495 10.069-20.33 24.32-20.33 8.17 0 16.34 3.23 22.04 9.025l-7.125 8.835c-4.466-3.705-9.12-5.795-14.915-5.795-6.176 0-10.07 2.755-10.07 7.41 0 5.035 4.939 6.84 10.925 9.215l9.215 3.895c8.551 3.515 14.155 8.93 14.155 19.095 0 11.495-9.595 21.28-25.84 21.28-9.405 0-18.81-3.705-25.65-10.26zM187.054 13.015h-19.761V1.235h53.771v11.78h-19.95v58.616h-14.061V13.015z"/><g fill="none" stroke="#000"><path d="M266 1.235h14.06v70.396H266V1.235zM308.938 13.015h-19.761V1.235h53.771v11.78h-19.95v58.616h-14.061V13.015zM351.974 1.235h43.13v11.78h-29.07V29.26h24.7v11.78h-24.7v18.81h30.115v11.78h-44.175V1.235zM408.022 1.235h15.58l11.97 32.965c1.521 4.37 2.851 9.025 4.275 13.49h.475c1.521-4.465 2.755-9.12 4.275-13.49l11.685-32.965h15.581v70.396h-12.825V42.275c0-6.65 1.045-16.435 1.805-23.085h-.475l-5.7 16.53-10.83 29.545h-8.075L424.837 35.72l-5.604-16.53h-.38c.665 6.65 1.805 16.435 1.805 23.085V71.63h-12.635V1.235z"/></g></g></svg>