<svg xmlns="http://www.w3.org/2000/svg" width="2399" height="639.252" viewBox="70 867.187 2399 639.252"><path d="M1507.4996 868.1003c-80.0996 4.2998-147.5996 33.6992-185.8994 80.7998-20.9004 25.7998-33.7998 56.7998-38.7002 93.0996-2 14.9004-1.5 43.2002.9004 57 9.6992 54.1006 43.5996 90.3008 109.5 116.9004 19.7998 8 40.7998 14.7002 96.6992 30.5996 99.6006 28.4004 119.3008 36.9004 127.6006 54.9004 2.2998 5 2.7002 7.0996 2.5996 15-.0996 21.0996-9.5996 35.5-29.5996 45.0996-16 7.6006-30.7002 10.1006-56.1006 9.2002-32.8994-1.0996-53.1992-8.0996-68.5-23.5996-11.0996-11.2002-16.7998-25.7002-19.1992-48.7998l-1.2002-11.3008h-94.2998c-74.8008 0-94.3008.3008-94.3008 1.2002 0 .7002.5 7.6006 1.1006 15.2998 3.2998 43.7002 16.7998 80.9004 40.3994 111 7.1006 9 25 26.8007 34 33.6005 37.5 28.5996 88.2002 47.7002 147 55.2998 52.3008 6.7998 117.4004 2 168.7002-12.5 94.7002-26.7998 148.7998-83.0996 159.4004-166.0996 2.2998-18.2002 1.5996-48.9004-1.5-64.1006-12.6006-62.2002-55.1006-102.8994-136.6006-130.3994-21-7.1006-37.6992-11.6006-86.6992-23.7002-49.6006-12.3008-66.7002-17.2002-82.3008-23.5-18.5996-7.6006-31.3994-17-37-27.3008-2.6992-4.6992-3-6.2998-3-13.7998s.3008-9.0996 2.9004-13.7998c9.7002-17.4004 34.4004-26.2998 69.0996-24.9004 21.7002.9004 36.1006 5.3008 51.6006 15.8008 14.7002 9.8994 23.5 27.6992 21.5 43l-.7002 4.8994h89.5996c49.2002 0 89.5-.2998 89.5-.7998 0-4.5996-2.5-26.0996-4-34.7002-17.6992-100.7998-96.8994-157-230.2998-163.5-22-1.0995-21.7998-1.0995-42.2002.1007zM69.9998 1186.9997v305h459v-157h-270v-453h-189v305zM602.3005 1082.1999c.3994 218.7998.0996 209.2998 6.1992 242.2002 13.2002 71.2998 50.8008 122.7001 111 151.5 32.5 15.5996 70.8008 24.9004 120 29.2002 17.1006 1.3994 66.2002 1.3994 84.5 0 126.2002-10.2002 198.7002-61.2002 225.5-158.9003 3.9004-14 8-37.3994 9.5-54.2002.6006-7.3994 1-82.5 1-210.7998V881.9998h-188V1054.2c0 94.7998-.5 181.4004-1 192.5-1.3994 31-4.8994 48.9004-12.3994 64.7998-8.2002 17.2002-17.2998 26.5-33.1006 34.1006-14 6.5996-21.5 7.8994-44 7.7998-17-.0996-20-.2998-28.5996-2.5996-16.0996-4.4004-29.7998-12.7002-38.5-23.5-6.2998-7.9004-13.7998-23.8008-16.7998-35.4004-6.1006-23.7998-6-18.5996-6.2998-223.2002l-.4004-186.7002h-189l.4004 200.2001zM1914.9996 1186.9997v305h189v-242h176v242h189v-610h-189v212h-176v-212h-189v305z"/></svg>