<svg xmlns="http://www.w3.org/2000/svg" xmlns:xlink="http://www.w3.org/1999/xlink" width="548.682" height="94.856" viewBox="16.032 158.225 548.682 94.856"><image overflow="visible" width="549" height="95" xlink:href="lotsoflove_txt.png" transform="translate(-112.4568 -182.2927)"/><path d="M165.384 3c2.414 0 7.935 1.495 7.935 3.335 0 1.149-1.033 2.415-2.068 2.415-1.15 0-2.99-.229-3.796-.229-3.91 0-11.615 2.186-23.116 6.325-7.937 17.48-21.621 56.353-24.381 68.313-.23.806-.46 1.609-.46 3.681 0 3.22-6.786 4.255-12.995 4.255-1.035 0-2.416-1.725-2.416-2.76 0-5.521 12.421-41.058 22.081-65.898-6.21 2.761-12.535 5.75-16.562 7.705-1.609.806-3.91 2.07-4.484 4.142-.319.19-.781.358-1.339.506-.77 14.882-8.003 33.123-18.324 43.771-6.557 6.67-10.581 8.165-21.276 8.165-9.891 0-10.811-6.21-10.811-12.766 0-1.129.023-2.258.06-3.384-11.14 6.672-21.169 13.284-34.329 20.289-1.035.575-2.069.689-3.22.689s-2.3-.114-3.565-.114c-2.415 0-4.944 0-7.245.229C4.495 90.634 3 89.599 3 88.449c0-1.035 1.149-2.302 1.495-3.222 6.325-16.216 21.967-55.662 21.967-58.191 0-.921-1.841-.921-1.841-1.841 0-.921 3.104-6.439 3.681-8.051 1.15-.46 2.875-.575 4.025-.575 2.069 0 5.289-1.494 7.59-1.494 1.495 0 3.335.574 3.335 2.646 0 1.84-.345 3.91-1.149 6.21-5.291 16.215-13.227 37.261-21.163 55.548 10.581-5.521 20.816-10.58 31.627-15.641.482-.193.955-.3 1.303-.331 1.93-20.764 9.17-38.886 15.486-38.886 1.38 0 4.484.92 7.13 1.725 3.682-4.14 10.006-8.74 13.688-8.74 2.529 0 10.005 4.602 11.729 6.21.122.142.226.314.332.479.959-.511 1.959-1.018 3-1.514 8.511-4.024 17.597-7.705 24.843-10.466l2.528-5.979c.689-1.61.689-2.646 2.646-2.646 3.221 0 6.326 1.495 9.775 1.495.92 0 1.495.575 1.61 1.61C156.067 4.035 161.013 3 165.384 3M73.727 45.322c-.575 0-1.726-.114-2.761-.114-3.22 10.005-4.484 19.779-4.484 33.467 11.73-6.44 17.48-19.896 19.896-27.143 3.45-10.811 3.91-13.916 3.91-19.78 0-1.38-.114-2.761-.46-4.025-5.177 3.336-8.74 7.131-12.19 12.881-1.612 2.873-1.842 4.714-3.911 4.714M165.384 0c-4.281 0-8.82.841-17.35 3.269-.793-.689-1.829-1.084-3.008-1.084-1.41 0-2.853-.335-4.379-.688-1.706-.396-3.471-.807-5.396-.807-3.697 0-4.679 2.582-5.148 3.823-.076.199-.156.413-.254.641l-2.037 4.816c-6.367 2.447-15.313 6.058-23.858 10.1-.404.193-.81.391-1.209.59-2.878-2.114-9.284-6.054-12.57-6.054-4.668 0-10.891 4.653-14.592 8.338-2.935-.86-4.877-1.321-6.226-1.321-9.173 0-16.125 20.039-18.271 39.598-8.219 3.851-16.177 7.736-24.133 11.786 6.586-15.796 13.251-33.586 17.99-48.114.867-2.488 1.309-4.898 1.309-7.17 0-3.324-2.604-5.646-6.335-5.646-1.588 0-3.215.449-4.788.886-1.032.285-2.202.608-2.802.608-1.183 0-3.423.104-5.141.79l-1.257.502-.455 1.274c-.177.496-.898 1.934-1.479 3.088-1.895 3.768-2.374 4.845-2.374 5.972 0 1.451.763 2.373 1.488 2.938-2.104 6.747-12.29 32.732-17.989 47.268-1.295 3.305-2.465 6.285-3.42 8.736-.058.134-.25.448-.378.656C.765 85.704 0 86.95 0 88.449c0 1.86 1.165 3.186 1.937 4.062.177.2.443.503.517.621l.957 1.725 1.959-.202c2.151-.215 4.59-.215 6.946-.215.575 0 1.134.027 1.724.057.594.027 1.209.059 1.843.059 1.355 0 2.968-.126 4.65-1.053 9.427-5.019 17.331-9.881 24.978-14.585 1.604-.986 3.236-1.99 4.887-2.998.179 5.271 1.646 13.806 13.785 13.806 11.525 0 16.34-1.863 23.416-9.063 10.053-10.371 17.722-28.12 19.049-43.798.006-.003.013-.007.019-.01l1.026-.616.32-1.153c.17-.609 1.158-1.37 2.938-2.262 1.329-.646 5.084-2.456 9.799-4.635-8.015 21.147-19.662 54.02-19.662 60.146 0 2.539 2.55 5.76 5.416 5.76 13.221 0 15.995-3.945 15.995-7.255 0-1.649.15-2.182.345-2.855l.021-.073.019-.076c2.623-11.369 15.558-48.365 23.67-66.593 10.659-3.797 17.688-5.721 20.903-5.721.244 0 .824.048 1.337.09.801.065 1.709.141 2.459.141 2.651 0 5.068-2.581 5.068-5.415C176.318 1.168 167.083 0 165.384 0zM80.232 42.111c2.186-3.635 4.381-6.385 7.041-8.729-.085 4.364-.648 7.511-3.755 17.238-1.966 5.897-6.217 15.854-13.953 22.314.297-9.644 1.404-17.188 3.586-24.63.207.01.398.017.575.017 3.444 0 4.71-2.603 5.633-4.503.263-.541.535-1.099.873-1.707z"/><path d="M180.446 15.995c4.945 0 11.271 3.336 11.271 5.864-.114 2.876-1.61 6.9-5.98 6.9-4.255 0-8.854-.92-9.199-4.485-8.972 2.187-20.241 10.006-20.241 13.802 0 1.954 1.726 3.564 8.165 6.096 6.786 2.646 15.525 5.635 21.852 8.051 7.82 3.104 11.961 7.59 11.961 11.73 0 2.989-1.496 4.83-4.024 6.555-15.41 10.811-41.978 15.641-58.31 15.641-3.563 0-10.119-.345-10.119-3.104 0-3.336 8.279-8.051 12.074-8.28.807 0 .691 3.104.921 3.91 9.891-.23 42.207-7.246 42.321-13.341.115-1.495-5.52-3.682-11.27-5.751-5.521-2.069-12.076-4.141-17.941-6.67-7.016-2.875-11.73-7.36-11.73-11.961 0-4.256 2.761-8.165 9.775-13.227 7.933-5.634 21.504-11.73 30.474-11.73m0-3c-9.687 0-23.825 6.328-32.213 12.283-7.742 5.586-11.039 10.27-11.039 15.673 0 5.732 5.071 11.236 13.566 14.727 3.953 1.703 8.129 3.175 12.168 4.598 2.072.73 4.029 1.421 5.884 2.116 4.021 1.447 6.831 2.575 8.413 3.376-1.834 1.266-6.379 3.467-15.893 5.945-6.875 1.792-14.763 3.271-19.877 3.779-.312-1.746-1.115-3.729-3.563-3.729h-.09l-.091.006c-4.319.261-14.895 5.392-14.895 11.274 0 6.104 9.875 6.104 13.119 6.104 14.857 0 43.104-4.311 60.031-16.185 2.451-1.671 5.303-4.229 5.303-9.011 0-5.647-5.18-11.075-13.854-14.52-2.922-1.116-6.234-2.311-9.74-3.576-4.152-1.497-8.445-3.046-12.129-4.48-4.916-1.933-5.994-2.961-6.226-3.278.816-2.123 8.093-7.659 15.477-10.188 1.476 2.021 4.569 3.851 10.936 3.851 5.9 0 8.79-5.07 8.979-9.781l.003-.06v-.061c.002-5.056-8.655-8.863-14.269-8.863zM295.102 7.715c3.104 0 12.189 5.979 12.189 8.74 0 2.069-.459 3.564-1.84 7.476 10.465-3.91 27.141-10.351 29.211-10.351 1.725 0 4.371 2.646 4.371 3.564 0 1.61-.806 2.53-2.187 3.105-15.295 5.979-30.246 12.075-35.996 15.181-1.84 4.485-3.91 9.775-5.521 14.375l-2.414 6.786c9.66-3.91 16.905-7.016 26.795-11.271 1.61-.689 4.141-1.609 5.867-1.955 1.147.689 2.299 2.646 2.299 3.221 0 2.069-5.865 5.404-12.767 8.74-8.051 3.909-16.329 7.704-25.646 11.961-1.955 6.324-3.68 12.881-5.865 20.7-.459 1.609-3.104 3.681-4.83 3.681-2.299 0-8.854-3.105-8.854-4.715 0-.92.115-2.762 1.149-6.325 2.529-9.315 7.589-24.611 12.307-38.412-1.955-.115-3.91-.345-4.371-.805-.574-.347-2.07-2.416-2.07-3.565 0-1.38 2.07-2.875 3.451-3.565 1.84-.92 4.369-1.954 7.129-3.104 1.727-4.484 3.682-9.43 5.98-14.605-10.466 3.91-22.426 8.626-34.387 13.687 5.174 3.681 8.74 10.581 8.74 17.711 0 26.105-20.816 43.242-33.352 43.242-6.097 0-13.57-5.635-14.722-9.66-.805-2.875-1.266-6.556-1.266-10.006 0-14.146 4.025-27.256 11.156-40.598 2.989-5.404 5.52-9.659 7.819-10.694s5.636-2.07 7.705-2.07c2.07 0 3.795 2.646 3.795 3.68 0 1.035-.229 1.955-.688 2.876 8.625-3.564 16.676-6.899 24.955-10.12 4.836-1.845 18.981-6.905 21.858-6.905m-61.298 73.603c7.359 0 20.01-14.604 20.01-32.086 0-6.671-1.149-15.985-7.016-15.985-1.15 0-2.299.114-3.334.345-7.592 13.916-11.846 27.947-11.846 43.356 0 1.955.115 4.37 2.186 4.37m61.298-76.603c-4.172 0-22.732 7.026-22.92 7.097-6.874 2.674-13.586 5.424-20.56 8.303-.912-2.373-3.449-4.934-6.435-4.934-2.591 0-6.354 1.173-8.938 2.335-2.931 1.318-5.306 4.913-9.213 11.979-7.873 14.729-11.531 28.08-11.531 42.049 0 3.749.502 7.689 1.376 10.813 1.495 5.232 10.083 11.853 17.61 11.853 7.464 0 16.511-4.915 23.608-12.828 8.217-9.158 12.742-21.025 12.742-33.414 0-6.149-2.365-12.293-6.266-16.755 7.644-3.183 15.574-6.352 23.39-9.345-1.023 2.49-1.953 4.854-2.795 7.031-2.308.96-4.474 1.867-6.135 2.698-1.199.6-5.108 2.821-5.108 6.249 0 2.097 1.788 4.795 3.153 5.878.535.457 1.235.785 2.256 1.022-5.43 15.988-9.183 27.776-11.163 35.07-.85 2.93-1.262 5.265-1.262 7.137 0 2.069 1.604 3.809 5.207 5.636.961.488 4.279 2.079 6.646 2.079 3.049 0 6.871-2.9 7.715-5.855.611-2.186 1.183-4.257 1.732-6.254 1.317-4.79 2.477-8.989 3.723-13.104 9.209-4.209 16.943-7.77 24.482-11.432 10.807-5.223 14.455-8.108 14.455-11.438 0-1.96-2.056-4.771-3.756-5.792l-.994-.598-1.138.229c-2.03.405-4.75 1.406-6.461 2.14-7.963 3.427-13.922 5.979-20.537 8.711l.164-.464c1.312-3.741 3.093-8.4 5.058-13.23 5.321-2.709 17.266-7.71 34.727-14.536l.031-.012.031-.014c2.6-1.084 4.03-3.17 4.03-5.875 0-2.821-4.202-6.564-7.37-6.564-1.939 0-7.828 2.095-24.539 8.391-.019.006-.035.013-.054.021.148-.832.222-1.646.222-2.535 0-.882 0-3.565-6.224-7.872-1.305-.909-5.829-3.87-8.959-3.87zm-49.697 31.6c.451-.046.92-.068 1.394-.068 2.402 0 4.016 5.219 4.016 12.985 0 15.61-10.813 27.722-16.154 28.979-.024-.3-.04-.707-.04-1.264-.003-13.62 3.526-26.926 10.784-40.632zM373.412 15.075c1.493 0 3.334.574 3.334 2.646 0 1.84-.345 3.91-1.148 6.21-5.291 16.216-13.227 37.262-21.162 55.548 10.58-5.521 20.816-10.58 31.627-15.641.48-.193.955-.3 1.301-.331 1.931-20.764 9.173-38.886 15.488-38.886 1.379 0 4.484.92 7.129 1.725 3.683-4.14 10.006-8.74 13.687-8.74 2.53 0 10.006 4.602 11.729 6.21 1.611 1.841 1.955 5.865 1.955 8.396 0 15.296-7.475 35.077-18.399 46.348-6.556 6.67-10.58 8.165-21.275 8.165-9.891 0-10.811-6.21-10.811-12.766 0-1.129.022-2.257.059-3.384-11.141 6.673-21.168 13.284-34.328 20.289-1.035.575-2.07.689-3.221.689-1.151 0-2.299-.114-3.564-.114-2.416 0-4.944 0-7.246.229-.573-1.035-2.069-2.07-2.069-3.22 0-1.035 1.149-2.302 1.496-3.222 6.323-16.216 21.965-55.662 21.965-58.191 0-.921-1.84-.921-1.84-1.841 0-.921 3.104-6.439 3.682-8.051 1.147-.46 2.875-.575 4.022-.575 2.068.002 5.288-1.493 7.589-1.493m33.809 30.247c-.574 0-1.725-.114-2.76-.114-3.222 10.005-4.484 19.779-4.484 33.467 11.73-6.44 17.48-19.896 19.896-27.143 3.45-10.811 3.909-13.916 3.909-19.78 0-1.38-.114-2.761-.459-4.025-5.176 3.336-8.739 7.131-12.19 12.881-1.612 2.873-1.842 4.714-3.912 4.714m-33.809-33.247c-1.589 0-3.216.449-4.789.886-1.031.285-2.201.608-2.804.608-1.182 0-3.422.104-5.139.79l-1.256.502-.455 1.274c-.176.495-.898 1.932-1.479 3.086-1.896 3.768-2.377 4.847-2.377 5.974 0 1.45.765 2.373 1.488 2.938-2.104 6.745-12.283 32.712-17.977 47.237-1.302 3.315-2.474 6.308-3.433 8.767-.057.134-.25.448-.377.656-.559.909-1.324 2.155-1.324 3.653 0 1.861 1.166 3.187 1.938 4.063.176.2.443.503.514.621l.959 1.725 1.959-.202c2.15-.215 4.591-.215 6.947-.215.574 0 1.133.027 1.723.057.595.027 1.209.059 1.843.059 1.356 0 2.971-.126 4.651-1.053 9.433-5.021 17.343-9.889 24.99-14.594 1.6-.983 3.228-1.984 4.871-2.989.178 5.271 1.648 13.806 13.787 13.806 11.524 0 16.34-1.863 23.416-9.063 11.166-11.52 19.26-31.89 19.26-48.45 0-3.324-.467-7.822-2.697-10.371l-.1-.114-.111-.104c-1.557-1.452-9.869-7.018-13.777-7.018-4.665 0-10.889 4.653-14.589 8.338-2.935-.86-4.878-1.321-6.226-1.321-9.174 0-16.127 20.039-18.271 39.599-8.22 3.849-16.177 7.734-24.134 11.785 6.586-15.795 13.25-33.585 17.992-48.114.867-2.488 1.308-4.9 1.308-7.17.003-3.325-2.602-5.646-6.331-5.646zm40.315 30.035c2.187-3.634 4.381-6.384 7.041-8.729-.084 4.364-.647 7.511-3.754 17.238-1.967 5.897-6.219 15.854-13.953 22.314.297-9.645 1.404-17.188 3.586-24.63.207.01.398.017.574.017 3.445 0 4.709-2.603 5.633-4.503.263-.54.535-1.098.873-1.707z"/><path d="M493.934 13.695c1.725 0 3.219 2.301 3.219 3.565 0 1.035-2.529 2.415-3.68 4.14-8.051 11.616-28.291 41.519-34.961 54.628-1.267 2.53-1.496 4.142-1.726 6.67-.346 2.07-2.186 3.105-3.797 3.337-3.563.46-7.705 1.148-10.924 1.148-1.496 0-2.877-1.608-3.451-2.99-.346-.92-.459-2.528-.459-3.68 0-6.211 3.334-37.607 4.601-55.317.229-2.876.459-3.564.805-4.141 1.035-1.265 2.301-2.53 3.68-2.76 2.761-.347 6.211-.575 7.592-.575 1.726 0 2.988 1.61 2.988 2.99 0 2.529-1.379 4.944-1.725 8.97-1.035 11.616-1.609 21.047-3.105 33.007 19.896-33.927 27.947-46.117 30.478-47.037 3.793-1.379 8.164-1.955 10.465-1.955m0-3c-2.707 0-7.455.668-11.492 2.137-2.469.896-5.875 4.264-24.996 36.408.301-3.311.568-6.56.842-9.89.25-3.031.507-6.131.798-9.403.153-1.796.545-3.229.924-4.614.418-1.533.813-2.981.813-4.621 0-2.833-2.459-5.99-5.988-5.99-1.538 0-5.104.24-7.965.599l-.059.008-.062.011c-2.475.411-4.329 2.377-5.51 3.818l-.137.169-.111.186c-.707 1.175-.979 2.396-1.225 5.447-.562 7.842-1.51 18.183-2.428 28.184-1.173 12.758-2.183 23.776-2.183 27.373 0 1.121.084 3.228.65 4.735l.02.048.021.049c1.002 2.408 3.313 4.838 6.221 4.838 2.746 0 5.937-.438 9.021-.865.778-.106 1.547-.213 2.288-.309 3.378-.483 5.861-2.765 6.371-5.817l.019-.11.01-.111c.219-2.395.408-3.571 1.422-5.601 6.246-12.277 25.459-40.863 34.744-54.261l.016-.021.015-.022c.305-.456.961-1.035 1.539-1.547 1.239-1.096 2.645-2.338 2.645-4.257-.005-2.649-2.617-6.571-6.223-6.571z"/><path d="M541.081 10.245c3.451 0 4.601.345 4.601 1.38v.46c-12.879 4.37-26.91 11.961-37.836 19.666-2.529 4.716-4.83 9.314-6.9 13.686 14.146-6.325 17.48-7.475 21.275-7.475 3.682 0 9.201.574 9.201 1.84 0 .689-1.609 1.035-1.841 1.149-13.11 5.865-23.807 10.351-34.041 16.562-3.104 7.59-5.752 14.835-7.819 22.195 10.694-5.75 19.895-10.811 29.44-16.677.92-.46 1.955-.573 3.104-.573 7.592 0 8.971 1.035 8.971 2.528-7.705 5.866-20.701 14.491-33.236 21.393-4.483 2.415-8.051 4.024-10.006 4.024-12.881 0-14.489-1.034-14.489-3.104 0-1.38 1.034-2.875 1.381-4.141 1.379-5.176 2.989-10.695 4.83-16.216-2.07-.574-3.681-1.381-3.681-2.186 0-.575.229-1.15 1.033-1.61 2.187-1.495 3.91-2.99 5.637-4.37 2.529-7.016 5.404-13.916 8.396-20.354 6.096-13.571 9.086-19.781 14.031-19.781 1.034 0 5.176.345 7.819 1.035 2.301-.92 4.83-1.955 7.937-3.45 6.898-3.106 13.454-5.981 22.193-5.981m0-3c-9.551 0-16.604 3.175-23.428 6.244l-.035.017-.034.017c-2.658 1.28-4.861 2.204-6.871 3.017-2.904-.619-6.539-.897-7.582-.897-7.088 0-10.527 7.655-16.769 21.552-3.031 6.529-5.791 13.188-8.192 19.775-.195.158-.392.318-.589.479-1.274 1.041-2.594 2.115-4.125 3.17-1.563.94-2.422 2.407-2.422 4.143 0 1.96 1.435 3.203 2.937 3.984-1.381 4.312-2.717 8.888-3.984 13.643-.063.235-.25.649-.428 1.05-.471 1.052-1.055 2.361-1.055 3.864 0 5.811 6.646 6.104 17.489 6.104 2.334 0 5.646-1.271 11.429-4.384 13.864-7.632 26.778-16.429 33.633-21.646l1.182-.9V64.99c0-5.528-7.203-5.528-11.971-5.528-1.24 0-2.867.102-4.445.891l-.117.06-.11.068c-7.318 4.496-14.465 8.54-22.857 13.11 1.433-4.325 3.14-8.915 5.207-14.019 8.41-5.012 17.312-8.965 27.563-13.519 1.694-.753 3.432-1.523 5.209-2.319l.051-.017c2.428-.773 3.658-2.091 3.658-3.913 0-3.415-4.166-4.098-5.734-4.354-1.852-.305-4.27-.485-6.467-.485-3.496 0-6.48.785-14.971 4.424.955-1.888 1.926-3.754 2.903-5.59 11.347-7.917 24.938-14.949 36.492-18.87l2.035-.69V11.63c-.001-4.385-5.134-4.385-7.602-4.385z"/><g><g fill="#FFF"><path d="M42.493 185.261c0-.921-1.84-.921-1.84-1.841s3.105-6.439 3.681-8.05c1.149-.46 2.875-.575 4.024-.575 2.07 0 5.291-1.495 7.591-1.495 1.495 0 3.335.575 3.335 2.646 0 1.84-.345 3.91-1.149 6.21-5.291 16.216-13.226 37.262-21.161 55.548 10.58-5.521 20.815-10.58 31.626-15.641.575-.23 1.15-.346 1.495-.346 1.38 0 2.875.69 4.256.69.92 0 1.494.921 1.494 2.07 0 1.495-2.529 1.955-3.564 2.646-12.306 7.244-22.887 14.375-37.147 21.965-1.034.576-2.069.691-3.22.691s-2.3-.115-3.565-.115c-2.415 0-4.945 0-7.245.229-.575-1.035-2.07-2.069-2.07-3.22 0-1.035 1.15-2.301 1.495-3.221 6.323-16.213 21.964-55.661 21.964-58.191z"/><path d="M92.518 184.571c3.681-4.141 10.006-8.74 13.686-8.74 2.53 0 10.006 4.6 11.73 6.211 1.61 1.84 1.955 5.865 1.955 8.395 0 15.296-7.475 35.077-18.4 46.348-6.556 6.67-10.581 8.165-21.276 8.165-9.891 0-10.811-6.21-10.811-12.766 0-24.726 8.626-49.337 15.986-49.337 1.38-.001 4.486.919 7.13 1.724zm-10.005 52.328c11.73-6.441 17.48-19.896 19.896-27.142 3.45-10.811 3.91-13.915 3.91-19.781 0-1.38-.115-2.76-.46-4.024-5.175 3.334-8.74 7.13-12.19 12.88-1.61 2.876-1.84 4.716-3.91 4.716-.575 0-1.726-.115-2.761-.115-3.22 10.005-4.485 19.78-4.485 33.466z"/><path d="M160.37 173.071c-7.936 17.48-21.621 56.353-24.382 68.313-.229.806-.46 1.61-.46 3.681 0 3.22-6.785 4.255-12.995 4.255-1.035 0-2.415-1.725-2.415-2.76 0-5.521 12.42-41.057 22.081-65.898-6.211 2.76-12.536 5.75-16.562 7.705-1.609.806-3.91 2.07-4.484 4.141-1.726 1.035-7.591 1.381-10.351 1.381-.806 0-2.301-1.266-2.301-2.186 0-3.336 5.521-7.246 12.766-10.695 8.511-4.025 17.597-7.706 24.842-10.466l2.53-5.98c.689-1.61.689-2.646 2.645-2.646 3.221 0 6.325 1.496 9.775 1.496.92 0 1.495.574 1.61 1.609 9.431-2.76 14.376-3.795 18.746-3.795 2.415 0 7.936 1.495 7.936 3.335 0 1.149-1.035 2.415-2.07 2.415-1.15 0-2.99-.23-3.795-.23-3.91-.002-11.616 2.184-23.116 6.325z"/><path d="M214.303 222.178c0 2.99-1.495 4.83-4.025 6.555-15.41 10.811-41.977 15.641-58.308 15.641-3.565 0-10.12-.345-10.12-3.105 0-3.334 8.28-8.05 12.075-8.279.806 0 .69 3.104.92 3.91 9.891-.23 42.207-7.246 42.322-13.341.115-1.495-5.521-3.681-11.271-5.751-5.521-2.07-12.075-4.14-17.94-6.67-7.016-2.875-11.73-7.36-11.73-11.961 0-4.255 2.76-8.165 9.775-13.225 7.935-5.636 21.506-11.73 30.477-11.73 4.944 0 11.271 3.334 11.271 5.865-.115 2.875-1.61 6.9-5.98 6.9-4.256 0-8.855-.921-9.201-4.486-8.97 2.186-20.24 10.006-20.24 13.801 0 1.955 1.725 3.565 8.165 6.096 6.785 2.645 15.525 5.635 21.852 8.051 7.819 3.103 11.958 7.588 11.958 11.729zM265.015 180.086c0 1.035-.23 1.955-.69 2.875 8.625-3.565 16.676-6.9 24.956-10.121 4.83-1.84 18.977-6.9 21.852-6.9 3.105 0 12.191 5.98 12.191 8.74 0 2.07-.461 3.565-1.84 7.476 10.465-3.91 27.141-10.351 29.211-10.351 1.725 0 4.369 2.646 4.369 3.565 0 1.61-.805 2.53-2.184 3.104-15.297 5.98-30.248 12.076-35.998 15.182-1.84 4.484-3.91 9.775-5.52 14.375l-2.416 6.785c9.66-3.91 16.906-7.015 26.797-11.27 1.609-.69 4.141-1.61 5.865-1.955 1.15.689 2.301 2.645 2.301 3.22 0 2.07-5.865 5.405-12.766 8.74-8.051 3.91-16.332 7.706-25.646 11.961-1.955 6.325-3.68 12.88-5.865 20.7-.461 1.611-3.105 3.681-4.83 3.681-2.301 0-8.855-3.104-8.855-4.716 0-.92.115-2.76 1.15-6.324 2.529-9.316 7.59-24.611 12.305-38.412-1.955-.115-3.91-.346-4.371-.805-.574-.346-2.068-2.416-2.068-3.565 0-1.38 2.068-2.876 3.449-3.565 1.84-.92 4.371-1.955 7.131-3.105 1.725-4.484 3.68-9.43 5.98-14.605-10.467 3.91-22.426 8.625-34.387 13.686 5.174 3.681 8.74 10.58 8.74 17.711 0 26.106-20.816 43.242-33.352 43.242-6.095 0-13.57-5.635-14.721-9.66-.805-2.875-1.265-6.556-1.265-10.006 0-14.146 4.025-27.256 11.155-40.597 2.99-5.405 5.521-9.661 7.82-10.696 2.3-1.034 5.636-2.069 7.705-2.069 2.072-.001 3.797 2.644 3.797 3.679zm-5.52 11.731c-7.591 13.915-11.846 27.945-11.846 43.356 0 1.955.115 4.37 2.186 4.37 7.36 0 20.011-14.605 20.011-32.086 0-6.671-1.15-15.986-7.016-15.986-1.151 0-2.3.115-3.335.346zM375.988 185.261c0-.921-1.84-.921-1.84-1.841s3.105-6.439 3.682-8.05c1.148-.46 2.875-.575 4.023-.575 2.07 0 5.291-1.495 7.592-1.495 1.494 0 3.334.575 3.334 2.646 0 1.84-.344 3.91-1.148 6.21-5.291 16.216-13.227 37.262-21.162 55.548 10.58-5.521 20.816-10.58 31.627-15.641.574-.23 1.15-.346 1.494-.346 1.381 0 2.875.69 4.256.69.92 0 1.494.921 1.494 2.07 0 1.495-2.529 1.955-3.564 2.646-12.305 7.244-22.887 14.375-37.146 21.965-1.035.576-2.07.691-3.221.691s-2.299-.115-3.564-.115c-2.416 0-4.945 0-7.246.229-.574-1.035-2.07-2.069-2.07-3.22 0-1.035 1.15-2.301 1.496-3.221 6.322-16.213 21.963-55.661 21.963-58.191z"/><path d="M426.013 184.571c3.682-4.141 10.006-8.74 13.686-8.74 2.531 0 10.006 4.6 11.73 6.211 1.611 1.84 1.955 5.865 1.955 8.395 0 15.296-7.475 35.077-18.4 46.348-6.555 6.67-10.58 8.165-21.275 8.165-9.891 0-10.811-6.21-10.811-12.766 0-24.726 8.625-49.337 15.986-49.337 1.379-.001 4.484.919 7.129 1.724zm-10.004 52.328c11.73-6.441 17.48-19.896 19.895-27.142 3.451-10.811 3.91-13.915 3.91-19.781 0-1.38-.115-2.76-.459-4.024-5.176 3.334-8.74 7.13-12.191 12.88-1.609 2.876-1.84 4.716-3.91 4.716-.574 0-1.725-.115-2.76-.115-3.221 10.005-4.485 19.78-4.485 33.466zM470.863 175.946c1.725 0 2.99 1.609 2.99 2.99 0 2.529-1.381 4.945-1.725 8.971-1.035 11.615-1.611 21.045-3.105 33.006 19.896-33.926 27.945-46.117 30.477-47.037 3.795-1.38 8.166-1.955 10.465-1.955 1.725 0 3.221 2.301 3.221 3.564 0 1.035-2.531 2.416-3.68 4.141-8.051 11.615-28.293 41.518-34.963 54.628-1.264 2.53-1.494 4.14-1.725 6.671-.346 2.069-2.186 3.104-3.795 3.334-3.564.461-7.705 1.15-10.926 1.15-1.494 0-2.875-1.609-3.449-2.99-.346-.92-.461-2.529-.461-3.68 0-6.211 3.336-37.607 4.6-55.318.23-2.875.461-3.564.807-4.14 1.033-1.265 2.299-2.53 3.68-2.761 2.758-.344 6.208-.574 7.589-.574zM487.536 245.524c0-1.38 1.035-2.875 1.379-4.141 1.381-5.175 2.99-10.695 4.83-16.215-2.07-.576-3.68-1.381-3.68-2.186 0-.575.23-1.15 1.035-1.61 2.186-1.495 3.91-2.989 5.635-4.37 2.531-7.016 5.406-13.916 8.396-20.355 6.094-13.57 9.084-19.781 14.029-19.781 1.035 0 5.176.345 7.82 1.035 2.301-.92 4.83-1.955 7.936-3.45 6.9-3.105 13.457-5.98 22.197-5.98 3.449 0 4.6.345 4.6 1.38v.461c-12.881 4.369-26.912 11.96-37.836 19.665-2.531 4.716-4.832 9.315-6.9 13.687 14.145-6.326 17.48-7.477 21.275-7.477 3.68 0 9.201.576 9.201 1.841 0 .69-1.611 1.034-1.842 1.149-13.109 5.865-23.805 10.352-34.041 16.561-3.105 7.592-5.75 14.836-7.82 22.197 10.695-5.751 19.896-10.811 29.441-16.676.92-.461 1.955-.576 3.105-.576 7.59 0 8.971 1.035 8.971 2.531-7.705 5.865-20.701 14.49-33.236 21.391-4.486 2.415-8.051 4.025-10.006 4.025-12.879-.001-14.489-1.036-14.489-3.106z"/></g><path fill="#FFF" d="M19.791 250.622c-.132-.237-.419-.563-.696-.878-.696-.79-1.563-1.774-1.563-3.07 0-1.075.585-2.029 1.102-2.87.203-.33.412-.672.489-.877.963-2.468 2.13-5.446 3.425-8.748 6.083-15.517 17.185-43.835 18.353-48.498-.568-.284-1.747-.876-1.747-2.261 0-.776.499-1.886 2.215-5.298.661-1.314 1.345-2.674 1.553-3.257l.228-.637.628-.251c1.484-.594 3.507-.683 4.582-.683.804 0 2.023-.338 3.203-.664 1.477-.408 3.004-.831 4.388-.831 2.937 0 4.835 1.627 4.835 4.146 0 2.11-.415 4.366-1.233 6.705-5.107 15.653-12.468 35.138-19.544 51.79 9.237-4.761 18.42-9.272 27.957-13.736.187-.076.371-.143.55-.2 1.956-19.041 8.851-39.158 16.875-39.158 1.404 0 3.911.689 6.664 1.517 3.576-3.761 9.881-8.532 14.151-8.532 3.069 0 10.211 4.5 12.41 6.315.662-.341 1.334-.673 2.008-.994 8.775-4.15 17.981-7.847 24.354-10.284l2.281-5.393c.109-.254.197-.487.279-.704.457-1.205 1.083-2.856 3.747-2.856 1.755 0 3.434.391 5.058.768 1.612.375 3.134.729 4.717.729 1.079 0 1.966.474 2.517 1.284 8.864-2.553 13.621-3.47 17.839-3.47 1.92 0 9.436 1.262 9.436 4.835 0 2.013-1.735 3.915-3.57 3.915-.688 0-1.564-.072-2.337-.136-.584-.048-1.12-.095-1.458-.095-3.495 0-10.698 1.971-22.011 6.023-8.122 18.073-21.36 55.902-24.026 67.452-.235.835-.421 1.487-.421 3.344 0 5.007-9.082 5.755-14.495 5.755-1.942 0-3.915-2.479-3.915-4.26 0-5.767 11.901-39.681 20.867-63.035-6.217 2.821-11.524 5.381-13.192 6.191-1.604.803-3.313 1.818-3.694 3.192l-.16.578-.515.308c-.196.117-.42.227-.676.329-1.088 15.56-8.683 33.391-18.682 43.705-6.812 6.931-11.198 8.621-22.354 8.621-12.311 0-12.311-9.28-12.311-14.266 0-.231.001-.464.003-.695-2.406 1.458-4.773 2.914-7.146 4.373-7.633 4.695-15.526 9.551-24.922 14.552-1.368.763-2.753.867-3.924.867-.585 0-1.171-.028-1.771-.058-.579-.028-1.172-.058-1.795-.058-2.395 0-4.871 0-7.096.222l-.981.099-.479-.862zm68.296-45.656c-2.688 8.726-3.902 17.438-4.057 29.25 9.642-6.51 14.721-18.229 16.956-24.934 3.355-10.514 3.833-13.565 3.833-19.307 0-.519-.017-1.004-.052-1.46-3.958 2.885-6.896 6.229-9.812 11.087-.353.632-.649 1.243-.912 1.785-.915 1.882-1.778 3.659-4.284 3.659-.268 0-.65-.021-1.088-.048-.185-.009-.382-.021-.584-.032z"/><path d="M181.416 161.225c2.415 0 7.936 1.495 7.936 3.335 0 1.149-1.035 2.415-2.07 2.415-1.15 0-2.99-.23-3.795-.23-3.91 0-11.616 2.186-23.116 6.326-7.936 17.48-21.621 56.353-24.382 68.313-.229.806-.46 1.61-.46 3.681 0 3.22-6.785 4.255-12.995 4.255-1.035 0-2.415-1.725-2.415-2.76 0-5.521 12.42-41.057 22.081-65.898-6.211 2.76-12.536 5.75-16.562 7.705-1.609.806-3.91 2.07-4.484 4.141-.32.191-.783.359-1.34.506-.768 14.883-8.001 33.123-18.324 43.771-6.556 6.67-10.581 8.165-21.276 8.165-9.891 0-10.811-6.21-10.811-12.766 0-1.129.024-2.257.059-3.384-11.14 6.672-21.169 13.285-34.329 20.289-1.034.576-2.069.691-3.22.691s-2.3-.115-3.565-.115c-2.415 0-4.945 0-7.245.229-.575-1.035-2.07-2.069-2.07-3.22 0-1.035 1.15-2.301 1.495-3.221 6.325-16.215 21.966-55.662 21.966-58.192 0-.921-1.84-.921-1.84-1.841s3.105-6.439 3.681-8.05c1.149-.46 2.875-.575 4.024-.575 2.07 0 5.291-1.495 7.591-1.495 1.495 0 3.335.575 3.335 2.646 0 1.84-.345 3.91-1.149 6.21-5.291 16.216-13.226 37.262-21.161 55.548 10.58-5.521 20.815-10.58 31.626-15.641.482-.193.955-.301 1.301-.332 1.931-20.764 9.172-38.885 15.488-38.885 1.38 0 4.485.92 7.13 1.725 3.681-4.141 10.006-8.74 13.686-8.74 2.53 0 10.006 4.6 11.73 6.211.123.14.225.314.333.479.958-.512 1.958-1.018 3-1.514 8.511-4.025 17.597-7.706 24.842-10.466l2.53-5.98c.689-1.61.689-2.646 2.645-2.646 3.221 0 6.325 1.496 9.775 1.496.92 0 1.495.574 1.61 1.609 9.429-2.76 14.375-3.795 18.745-3.795m-91.657 42.322c-.575 0-1.726-.115-2.761-.115-3.22 10.006-4.484 19.781-4.484 33.467 11.73-6.441 17.48-19.896 19.896-27.142 3.45-10.811 3.91-13.915 3.91-19.781 0-1.38-.115-2.76-.46-4.024-5.175 3.334-8.74 7.13-12.19 12.88-1.612 2.875-1.841 4.715-3.911 4.715m91.657-45.322c-4.281 0-8.82.841-17.35 3.27-.792-.69-1.829-1.084-3.006-1.084-1.411 0-2.852-.335-4.378-.689-1.706-.396-3.471-.807-5.397-.807-3.699 0-4.679 2.583-5.149 3.824-.075.199-.156.413-.253.641l-2.038 4.815c-6.368 2.447-15.315 6.059-23.859 10.1-.406.193-.81.39-1.21.59-2.877-2.116-9.28-6.054-12.57-6.054-4.668 0-10.89 4.653-14.59 8.337-2.933-.86-4.876-1.321-6.225-1.321-9.173 0-16.125 20.04-18.271 39.599-8.217 3.849-16.174 7.734-24.131 11.785 6.583-15.789 13.248-33.579 17.992-48.115.867-2.487 1.307-4.899 1.307-7.169 0-3.324-2.605-5.646-6.335-5.646-1.587 0-3.214.45-4.788.886-1.032.285-2.202.609-2.803.609-1.182 0-3.421.103-5.139.79l-1.255.502-.455 1.274c-.177.496-.9 1.933-1.48 3.087-1.895 3.767-2.375 4.846-2.375 5.972 0 1.451.763 2.373 1.489 2.938-2.104 6.745-12.292 32.733-17.991 47.271-1.295 3.303-2.463 6.283-3.419 8.733-.057.134-.25.448-.377.656-.558.909-1.323 2.155-1.323 3.654 0 1.862 1.166 3.187 1.938 4.062.176.2.442.503.514.621l.958 1.725 1.959-.202c2.151-.215 4.589-.215 6.947-.215.575 0 1.132.027 1.722.056.594.029 1.209.06 1.844.06 1.356 0 2.969-.126 4.652-1.056 9.427-5.019 17.333-9.882 24.98-14.586 1.603-.985 3.233-1.988 4.881-2.995.178 5.271 1.647 13.806 13.786 13.806 11.526 0 16.34-1.863 23.416-9.063 10.053-10.37 17.721-28.118 19.049-43.796.005-.003.011-.007.016-.01l1.03-.616.32-1.156c.169-.608 1.157-1.369 2.937-2.26 1.333-.647 5.096-2.463 9.799-4.636-8.013 21.146-19.662 54.016-19.662 60.146 0 2.539 2.549 5.76 5.415 5.76 13.22 0 15.995-3.945 15.995-7.255 0-1.647.152-2.18.344-2.854l.021-.073.019-.079c2.625-11.371 15.56-48.368 23.672-66.594 10.66-3.796 17.689-5.72 20.903-5.72.243 0 .823.048 1.335.09.802.065 1.71.141 2.46.141 2.654 0 5.07-2.581 5.07-5.415-.006-5.166-9.242-6.334-10.941-6.334zm-85.151 42.11c2.185-3.635 4.381-6.385 7.041-8.729-.085 4.364-.65 7.511-3.754 17.238-1.966 5.897-6.217 15.853-13.954 22.315.298-9.644 1.404-17.189 3.586-24.63.208.01.399.017.575.017 3.445 0 4.71-2.604 5.633-4.504.263-.54.535-1.099.873-1.707z"/><path fill="#FFF" d="M151.97 245.873c-7.819 0-11.62-1.507-11.62-4.605 0-4.463 9.246-9.521 13.485-9.776h.003c1.953 0 2.197 2.161 2.334 3.84 4.97-.352 14.33-1.958 23.104-4.351 12.537-3.42 15.948-6.233 16.349-7.264-1.253-1.265-7.97-3.683-10.237-4.499-1.896-.711-3.894-1.415-5.943-2.137-4.019-1.417-8.175-2.881-12.083-4.567-7.903-3.238-12.636-8.229-12.636-13.338 0-4.866 3.11-9.185 10.398-14.441 8.204-5.827 21.975-12.014 31.354-12.014 5.458 0 12.771 3.642 12.771 7.365-.167 4.212-2.545 8.4-7.48 8.4-6.77 0-9.324-2.16-10.241-4.15-8.866 2.646-17.7 9.728-17.7 11.965 0 .868.82 2.188 7.213 4.699 3.697 1.441 7.998 2.992 12.157 4.493 3.501 1.263 6.809 2.456 9.681 3.553 8.1 3.216 12.925 8.122 12.925 13.132 0 4.057-2.366 6.217-4.681 7.794-14.875 10.435-41.021 15.901-59.153 15.901z"/><path d="M196.478 174.221c4.944 0 11.271 3.334 11.271 5.865-.115 2.875-1.61 6.9-5.98 6.9-4.256 0-8.855-.921-9.201-4.486-8.97 2.186-20.24 10.006-20.24 13.801 0 1.955 1.725 3.565 8.165 6.096 6.785 2.645 15.525 5.635 21.852 8.051 7.82 3.104 11.96 7.59 11.96 11.73 0 2.99-1.495 4.83-4.025 6.555-15.41 10.811-41.977 15.641-58.308 15.641-3.565 0-10.12-.345-10.12-3.105 0-3.334 8.28-8.05 12.075-8.279.806 0 .69 3.104.92 3.91 9.891-.23 42.207-7.246 42.322-13.341.115-1.495-5.521-3.681-11.271-5.751-5.521-2.07-12.075-4.14-17.94-6.67-7.016-2.875-11.73-7.36-11.73-11.961 0-4.255 2.76-8.165 9.775-13.225 7.933-5.636 21.505-11.731 30.475-11.731m0-3c-9.69 0-23.829 6.329-32.214 12.284-7.742 5.584-11.038 10.267-11.038 15.671 0 5.734 5.071 11.238 13.567 14.727 3.948 1.701 8.119 3.172 12.153 4.593 2.077.732 4.038 1.424 5.897 2.12 4.02 1.448 6.83 2.576 8.413 3.377-1.834 1.265-6.379 3.467-15.892 5.945-6.875 1.792-14.762 3.272-19.877 3.779-.31-1.746-1.114-3.729-3.562-3.729h-.091l-.09.006c-4.319.261-14.894 5.39-14.894 11.273 0 6.105 9.875 6.105 13.12 6.105 14.856 0 43.104-4.311 60.031-16.185 2.451-1.67 5.302-4.228 5.302-9.011 0-5.647-5.179-11.075-13.853-14.519-2.922-1.116-6.236-2.312-9.744-3.577-4.151-1.497-8.442-3.046-12.125-4.48-4.916-1.932-5.993-2.961-6.224-3.278.815-2.123 8.091-7.658 15.475-10.188 1.476 2.022 4.57 3.852 10.937 3.852 5.899 0 8.789-5.069 8.978-9.78l.002-.06v-.061c0-5.057-8.657-8.864-14.271-8.864z"/><path fill="#FFF" d="M294.802 251.394c-2.252 0-10.355-3.085-10.355-6.216 0-1.733.396-3.939 1.21-6.742 2.03-7.479 5.968-19.813 11.704-36.656-1.955-.219-2.781-.546-3.275-.975-.972-.732-2.623-3.04-2.623-4.733 0-2.638 3.564-4.551 4.279-4.907 1.693-.847 3.964-1.791 6.367-2.792l.265-.109c1.246-3.231 2.693-6.906 4.359-10.816-9.571 3.622-19.395 7.538-28.724 11.451 4.537 4.236 7.367 10.758 7.367 17.294 0 25.955-20.818 44.742-34.852 44.742-6.743 0-14.822-6.055-16.163-10.748-.841-3.005-1.322-6.8-1.322-10.418 0-13.713 3.601-26.837 11.333-41.304 3.142-5.681 5.758-10.11 8.527-11.357 2.437-1.096 5.955-2.201 8.321-2.201 3.006 0 5.296 3.453 5.296 5.181 0 .117-.002.233-.007.35 7.586-3.135 14.825-6.113 22.229-8.993.193-.074 18.619-7.003 22.396-7.003 3.689 0 13.691 6.348 13.691 10.24 0 1.63-.249 2.918-.897 4.957.896-.337 1.819-.685 2.758-1.038 15.526-5.849 22.294-8.294 24.011-8.294 2.477 0 5.869 3.231 5.869 5.065 0 2.12-1.045 3.631-3.106 4.489-18.085 7.07-30.279 12.194-35.393 14.867-2.056 5.031-3.927 9.914-5.286 13.8l-1.296 3.64c7.969-3.257 14.486-6.047 23.668-9.997 1.773-.761 4.366-1.688 6.164-2.048l.568-.113.497.298c1.443.865 3.029 3.224 3.029 4.506 0 2.168-2.277 4.612-13.613 10.091-7.721 3.75-15.612 7.377-25.063 11.695-1.329 4.344-2.54 8.74-3.933 13.795-.549 1.992-1.118 4.06-1.724 6.224-.654 2.28-3.936 4.775-6.276 4.775zm-34.326-58.239c-7.621 14.168-11.327 27.919-11.327 42.019 0 2.544.366 2.87.686 2.87 6.255 0 18.511-13.848 18.511-30.586 0-3.398-.398-14.486-5.516-14.486-.812-.001-1.614.062-2.354.183z"/><path d="M311.132 165.94c3.105 0 12.191 5.98 12.191 8.74 0 2.07-.461 3.565-1.84 7.476 10.465-3.91 27.141-10.351 29.211-10.351 1.725 0 4.369 2.646 4.369 3.565 0 1.61-.805 2.53-2.184 3.104-15.297 5.98-30.248 12.076-35.998 15.182-1.84 4.484-3.91 9.775-5.52 14.375l-2.416 6.785c9.66-3.91 16.906-7.015 26.797-11.27 1.609-.69 4.141-1.61 5.865-1.955 1.15.689 2.301 2.645 2.301 3.22 0 2.07-5.865 5.405-12.766 8.74-8.051 3.91-16.332 7.706-25.646 11.961-1.955 6.325-3.68 12.88-5.865 20.7-.461 1.611-3.105 3.681-4.83 3.681-2.301 0-8.855-3.104-8.855-4.716 0-.92.115-2.76 1.15-6.324 2.529-9.316 7.59-24.611 12.305-38.412-1.955-.115-3.91-.346-4.371-.805-.574-.346-2.068-2.416-2.068-3.565 0-1.38 2.068-2.876 3.449-3.565 1.84-.92 4.371-1.955 7.131-3.105 1.725-4.484 3.68-9.43 5.98-14.605-10.467 3.91-22.426 8.625-34.387 13.686 5.174 3.681 8.74 10.58 8.74 17.711 0 26.106-20.816 43.242-33.352 43.242-6.095 0-13.57-5.635-14.721-9.66-.805-2.875-1.265-6.556-1.265-10.006 0-14.146 4.025-27.256 11.155-40.597 2.99-5.405 5.521-9.661 7.82-10.696 2.3-1.034 5.636-2.069 7.705-2.069 2.07 0 3.796 2.646 3.796 3.681s-.23 1.955-.69 2.875c8.625-3.565 16.676-6.9 24.956-10.121 4.832-1.842 18.978-6.902 21.853-6.902m-61.297 73.603c7.36 0 20.011-14.605 20.011-32.086 0-6.671-1.15-15.986-7.016-15.986-1.15 0-2.3.115-3.335.346-7.591 13.915-11.846 27.945-11.846 43.356 0 1.955.115 4.37 2.186 4.37m61.297-76.603c-4.172 0-22.733 7.026-22.92 7.097-6.872 2.674-13.585 5.424-20.558 8.303-.913-2.374-3.45-4.934-6.435-4.934-2.588 0-6.353 1.172-8.936 2.333-3.198 1.439-5.837 5.874-9.215 11.98-7.873 14.73-11.53 28.08-11.53 42.049 0 3.749.501 7.691 1.375 10.814 1.496 5.232 10.083 11.852 17.61 11.852 7.464 0 16.511-4.915 23.61-12.828 8.217-9.158 12.742-21.025 12.742-33.414 0-6.149-2.365-12.292-6.266-16.755 7.639-3.181 15.569-6.349 23.39-9.345-1.024 2.493-1.954 4.857-2.795 7.032-2.307.96-4.474 1.867-6.136 2.698-1.197.598-5.107 2.817-5.107 6.249 0 2.097 1.788 4.795 3.153 5.878.535.458 1.236.785 2.255 1.022-5.432 15.999-9.183 27.787-11.162 35.07-.849 2.93-1.262 5.264-1.262 7.136 0 2.071 1.606 3.81 5.207 5.638.961.487 4.28 2.078 6.648 2.078 3.048 0 6.869-2.9 7.715-5.855.61-2.184 1.18-4.253 1.729-6.247 1.32-4.793 2.478-8.993 3.725-13.11 9.188-4.199 16.913-7.754 24.483-11.431 10.807-5.223 14.455-8.109 14.455-11.438 0-1.961-2.057-4.772-3.759-5.793l-.994-.596-1.136.228c-1.904.38-4.616 1.349-6.46 2.14-7.955 3.422-13.908 5.973-20.537 8.71l.165-.463c1.311-3.745 3.092-8.405 5.056-13.231 5.319-2.708 17.265-7.71 34.729-14.537l.03-.012.03-.013c2.599-1.082 4.03-3.168 4.03-5.874 0-2.822-4.201-6.565-7.369-6.565-1.939 0-7.828 2.095-24.539 8.391-.019.007-.036.014-.055.02.149-.832.223-1.646.223-2.535 0-.882 0-3.565-6.225-7.872-1.309-.909-5.831-3.87-8.964-3.87zm-49.695 31.6c.45-.046.919-.069 1.393-.069 2.402 0 4.016 5.219 4.016 12.986 0 15.61-10.813 27.721-16.156 28.979-.024-.3-.041-.707-.041-1.263 0-13.622 3.531-26.928 10.788-40.633z"/><g><path fill="#FFF" d="M353.285 250.621c-.132-.236-.419-.563-.696-.878-.696-.79-1.563-1.773-1.563-3.069 0-1.076.586-2.03 1.103-2.872.203-.329.412-.671.489-.876.968-2.482 2.145-5.483 3.448-8.81 6.074-15.496 17.16-43.776 18.328-48.436-.568-.284-1.747-.876-1.747-2.261 0-.776.499-1.887 2.218-5.302.66-1.313 1.343-2.671 1.552-3.253l.228-.637.627-.251c1.483-.594 3.507-.683 4.581-.683.804 0 2.023-.337 3.202-.664 1.478-.408 3.005-.831 4.39-.831 2.937 0 4.834 1.627 4.834 4.146 0 2.111-.415 4.368-1.232 6.705-5.105 15.648-12.466 35.133-19.545 51.79 9.232-4.758 18.416-9.27 27.958-13.736.187-.076.37-.143.55-.2 1.956-19.041 8.851-39.158 16.875-39.158 1.403 0 3.91.689 6.663 1.517 3.577-3.761 9.882-8.532 14.151-8.532 3.256 0 11.096 5.065 12.755 6.615l.055.051.049.057c2.024 2.312 2.327 6.871 2.327 9.383 0 16.21-7.916 36.141-18.823 47.392-6.811 6.931-11.196 8.621-22.353 8.621-12.311 0-12.311-9.28-12.311-14.266 0-.231.001-.464.003-.695-2.403 1.456-4.768 2.91-7.137 4.368-7.636 4.697-15.532 9.554-24.931 14.557-1.37.763-2.755.867-3.926.867-.586 0-1.171-.028-1.771-.058-.578-.028-1.172-.058-1.794-.058-2.395 0-4.871 0-7.098.222l-.981.099-.478-.864zm68.298-45.655c-2.688 8.724-3.902 17.436-4.057 29.25 9.643-6.511 14.72-18.229 16.954-24.934 3.355-10.511 3.833-13.563 3.833-19.307 0-.518-.018-1.003-.052-1.459-3.958 2.883-6.896 6.227-9.813 11.086-.352.63-.647 1.241-.911 1.782-.914 1.884-1.778 3.662-4.285 3.662-.268 0-.648-.021-1.086-.048-.184-.009-.381-.021-.583-.032z"/><path d="M389.445 173.3c1.494 0 3.334.575 3.334 2.646 0 1.84-.344 3.91-1.148 6.21-5.291 16.216-13.227 37.262-21.162 55.548 10.58-5.521 20.816-10.58 31.627-15.641.481-.193.955-.301 1.301-.332 1.931-20.764 9.172-38.885 15.488-38.885 1.379 0 4.484.92 7.129 1.725 3.682-4.141 10.006-8.74 13.686-8.74 2.531 0 10.006 4.6 11.73 6.211 1.611 1.84 1.955 5.865 1.955 8.395 0 15.296-7.475 35.077-18.4 46.348-6.555 6.67-10.58 8.165-21.275 8.165-9.891 0-10.811-6.21-10.811-12.766 0-1.13.023-2.258.059-3.384-11.139 6.672-21.169 13.285-34.328 20.289-1.035.576-2.07.691-3.221.691s-2.299-.115-3.564-.115c-2.416 0-4.945 0-7.246.229-.574-1.035-2.07-2.069-2.07-3.22 0-1.035 1.15-2.301 1.496-3.221 6.324-16.215 21.965-55.662 21.965-58.192 0-.921-1.84-.921-1.84-1.841s3.105-6.439 3.682-8.05c1.148-.46 2.875-.575 4.023-.575 2.068 0 5.289-1.495 7.59-1.495m33.808 30.247c-.574 0-1.725-.115-2.76-.115-3.221 10.006-4.484 19.781-4.484 33.467 11.73-6.441 17.48-19.896 19.895-27.142 3.451-10.811 3.91-13.915 3.91-19.781 0-1.38-.115-2.76-.459-4.024-5.176 3.334-8.74 7.13-12.191 12.88-1.61 2.875-1.841 4.715-3.911 4.715M389.445 170.3c-1.588 0-3.216.45-4.789.886-1.032.286-2.202.609-2.803.609-1.183 0-3.422.103-5.139.79l-1.254.503-.455 1.271c-.178.496-.899 1.932-1.479 3.084-1.896 3.771-2.378 4.85-2.378 5.977 0 1.451.763 2.373 1.489 2.938-2.104 6.741-12.276 32.693-17.967 47.211-1.305 3.327-2.481 6.329-3.442 8.794-.056.132-.249.446-.377.654-.559.91-1.324 2.156-1.324 3.656 0 1.862 1.166 3.186 1.937 4.061.177.2.442.503.514.621l.958 1.726 1.96-.202c2.152-.215 4.591-.215 6.948-.215.574 0 1.132.027 1.721.056.595.029 1.209.06 1.844.06 1.355 0 2.968-.126 4.652-1.055 9.43-5.021 17.341-9.887 24.99-14.592 1.6-.984 3.227-1.985 4.872-2.99.178 5.27 1.647 13.806 13.786 13.806 11.526 0 16.341-1.863 23.415-9.063 11.166-11.519 19.261-31.889 19.261-48.45 0-3.326-.468-7.824-2.698-10.371l-.099-.113-.11-.103c-1.555-1.453-9.866-7.019-13.778-7.019-4.667 0-10.889 4.653-14.59 8.338-2.934-.861-4.877-1.322-6.225-1.322-9.173 0-16.126 20.04-18.271 39.599-8.221 3.851-16.179 7.736-24.132 11.785 6.585-15.793 13.249-33.583 17.992-48.114.866-2.486 1.306-4.898 1.306-7.17-.001-3.325-2.606-5.646-6.335-5.646zm40.315 30.035c2.186-3.635 4.381-6.385 7.04-8.728-.085 4.366-.649 7.512-3.754 17.237-1.966 5.897-6.217 15.853-13.953 22.315.298-9.646 1.404-17.19 3.586-24.63.207.01.398.017.574.017 3.446 0 4.711-2.604 5.635-4.506.263-.54.534-1.098.872-1.705z"/></g><g><path fill="#FFF" d="M458.097 246.908c-2.203 0-4.05-2.029-4.834-3.914-.521-1.386-.576-3.437-.576-4.256 0-3.525 1.008-14.501 2.174-27.209.92-10.019 1.87-20.377 2.43-28.216.246-3.076.513-3.967 1.017-4.806l.056-.093.069-.084c1.024-1.255 2.616-2.961 4.594-3.291 2.833-.354 6.384-.595 7.837-.595 2.646 0 4.49 2.366 4.49 4.49 0 1.438-.369 2.791-.761 4.225-.377 1.384-.806 2.952-.97 4.874-.292 3.28-.547 6.381-.797 9.414-.456 5.537-.894 10.854-1.501 16.592 19.791-33.543 25.1-40.644 27.662-41.575 3.865-1.405 8.399-2.045 10.978-2.045 2.693 0 4.721 3.072 4.721 5.064 0 1.242-.991 2.118-2.139 3.133-.647.572-1.381 1.221-1.793 1.839-1.113 1.608-27.006 39.012-34.874 54.477-1.118 2.238-1.336 3.587-1.567 6.127l-.015.111c-.486 2.911-3.031 4.282-5.063 4.572-.762.099-1.529.204-2.308.312-3.039.421-6.181.854-8.83.854z"/><path d="M509.964 171.92c1.725 0 3.221 2.301 3.221 3.564 0 1.035-2.531 2.416-3.68 4.141-8.051 11.615-28.293 41.518-34.963 54.628-1.264 2.53-1.494 4.14-1.725 6.671-.346 2.069-2.186 3.104-3.795 3.334-3.564.461-7.705 1.15-10.926 1.15-1.494 0-2.875-1.609-3.449-2.99-.346-.92-.461-2.529-.461-3.68 0-6.211 3.336-37.607 4.6-55.318.23-2.875.461-3.564.807-4.14 1.033-1.265 2.299-2.53 3.68-2.761 2.76-.344 6.209-.574 7.59-.574 1.725 0 2.99 1.609 2.99 2.99 0 2.529-1.381 4.945-1.725 8.971-1.035 11.615-1.611 21.045-3.105 33.006 19.896-33.926 27.945-46.117 30.477-47.037 3.794-1.38 8.165-1.955 10.464-1.955m0-3c-2.705 0-7.454.668-11.49 2.136-2.469.897-5.876 4.264-24.998 36.41.303-3.312.57-6.563.845-9.895.249-3.03.504-6.127.796-9.398.153-1.798.545-3.231.923-4.618.419-1.533.813-2.98.813-4.619 0-2.833-2.46-5.99-5.99-5.99-1.529 0-5.093.24-7.961.598l-.062.007-.062.011c-2.477.413-4.33 2.379-5.509 3.821l-.137.168-.111.185c-.706 1.176-.981 2.397-1.226 5.446-.561 7.85-1.511 18.2-2.43 28.211-1.169 12.745-2.18 23.753-2.18 27.347 0 1.12.085 3.224.652 4.735l.019.048.021.049c1.001 2.408 3.313 4.838 6.219 4.838 2.752 0 5.946-.441 9.035-.867.774-.107 1.537-.213 2.275-.308 3.374-.481 5.859-2.762 6.369-5.815l.019-.11.01-.111c.219-2.396.408-3.574 1.421-5.603 6.249-12.283 25.461-40.865 34.745-54.26l.016-.023.016-.022c.304-.456.959-1.035 1.538-1.547 1.239-1.096 2.645-2.339 2.645-4.257 0-2.646-2.612-6.567-6.221-6.567z"/></g><g><path fill="#FFF" d="M502.027 250.129c-11.998 0-15.99-.666-15.99-4.605 0-1.183.49-2.281.923-3.251.211-.474.41-.921.509-1.283 1.392-5.217 2.863-10.209 4.38-14.857-2.205-.827-3.282-1.864-3.282-3.149 0-.851.303-2.035 1.733-2.879 1.606-1.103 2.967-2.213 4.282-3.286.298-.243.593-.483.887-.721 2.423-6.678 5.216-13.432 8.304-20.082 5.977-13.309 9.272-20.649 15.39-20.649 1.141 0 4.979.327 7.71.963 2.15-.862 4.504-1.838 7.396-3.229 6.712-3.021 13.617-6.129 22.848-6.129 2.574 0 6.1 0 6.1 2.88v1.536l-1.019.346c-11.781 3.996-25.648 11.187-37.163 19.267-1.68 3.139-3.331 6.364-4.932 9.634 11.226-4.953 14.432-5.946 18.152-5.946 7.101 0 10.701 1.124 10.701 3.341 0 1.65-1.83 2.233-2.611 2.482l-.15.049c-1.825.818-3.552 1.585-5.239 2.335-10.482 4.656-19.558 8.688-28.181 13.871-2.75 6.75-4.875 12.615-6.568 18.144 9.879-5.34 17.936-9.848 26.203-14.928l.113-.063c1.3-.651 2.702-.735 3.777-.735 6.632 0 10.471.659 10.471 4.031v.743l-.592.45c-6.814 5.188-19.656 13.935-33.421 21.512-5.489 2.95-8.694 4.208-10.731 4.208z"/><path d="M557.115 168.47c3.449 0 4.6.345 4.6 1.38v.461c-12.881 4.369-26.912 11.96-37.836 19.665-2.531 4.716-4.832 9.315-6.9 13.687 14.145-6.326 17.48-7.477 21.275-7.477 3.68 0 9.201.576 9.201 1.841 0 .69-1.611 1.034-1.842 1.149-13.109 5.865-23.805 10.352-34.041 16.561-3.105 7.592-5.75 14.836-7.82 22.197 10.695-5.751 19.896-10.811 29.441-16.676.92-.461 1.955-.576 3.105-.576 7.59 0 8.971 1.035 8.971 2.531-7.705 5.865-20.701 14.49-33.236 21.391-4.486 2.415-8.051 4.025-10.006 4.025-12.881 0-14.49-1.035-14.49-3.105 0-1.38 1.035-2.875 1.379-4.141 1.381-5.175 2.99-10.695 4.83-16.215-2.07-.576-3.68-1.381-3.68-2.186 0-.575.23-1.15 1.035-1.61 2.186-1.495 3.91-2.989 5.635-4.37 2.531-7.016 5.406-13.916 8.396-20.355 6.094-13.57 9.084-19.781 14.029-19.781 1.035 0 5.176.345 7.82 1.035 2.301-.92 4.83-1.955 7.936-3.45 6.901-3.106 13.457-5.981 22.198-5.981m0-3c-9.553 0-16.606 3.175-23.429 6.245l-.035.016-.035.017c-2.658 1.28-4.861 2.205-6.872 3.016-2.904-.619-6.538-.897-7.582-.897-7.088 0-10.525 7.655-16.766 21.553-3.031 6.525-5.791 13.185-8.195 19.775-.188.152-.377.307-.567.462-1.281 1.045-2.605 2.126-4.145 3.185-1.563.942-2.423 2.408-2.423 4.143 0 1.959 1.434 3.201 2.937 3.983-1.377 4.301-2.714 8.877-3.985 13.644-.064.237-.249.651-.428 1.052-.469 1.052-1.053 2.36-1.053 3.862 0 5.811 6.646 6.105 17.49 6.105 2.333 0 5.644-1.271 11.428-4.384 13.861-7.63 26.776-16.427 33.632-21.646l1.183-.9v-1.486c0-5.531-7.204-5.531-11.971-5.531-1.241 0-2.868.102-4.449.894l-.116.059-.11.068c-7.308 4.49-14.456 8.535-22.856 13.109 1.432-4.325 3.139-8.916 5.207-14.019 8.419-5.014 17.327-8.972 27.59-13.53 1.688-.749 3.414-1.516 5.184-2.308l.052-.017c2.426-.773 3.656-2.09 3.656-3.912 0-3.413-4.166-4.098-5.734-4.355-1.854-.304-4.271-.485-6.467-.485-3.496 0-6.482.786-14.973 4.426.955-1.887 1.926-3.754 2.905-5.59 11.347-7.919 24.938-14.95 36.492-18.87l2.036-.69V169.853c-.002-4.383-5.135-4.383-7.601-4.383z"/></g></g></svg>