<svg xmlns="http://www.w3.org/2000/svg" width="491.014" height="260.627"><g fill="none" stroke="#000" stroke-miterlimit="10"><path d="M.5 1.733h14.06V60.35h28.596v11.78H.5V1.733zM48.949 40.495V1.733H63.01v39.995c0 14.63 5.13 19.57 13.3 19.57 8.36 0 13.682-4.94 13.682-19.57V1.733h13.489v38.762c0 23.37-9.976 32.965-27.171 32.965-17.1 0-27.361-9.595-27.361-32.965zM112.219 63.2l8.075-9.69c5.035 4.655 11.685 7.79 17.859 7.79 7.314 0 11.21-3.135 11.21-8.075 0-5.225-4.274-6.84-10.545-9.5l-9.404-3.99c-7.125-2.944-14.25-8.645-14.25-18.904 0-11.495 10.068-20.33 24.319-20.33 8.17 0 16.341 3.229 22.04 9.024l-7.125 8.835c-4.466-3.705-9.12-5.795-14.915-5.795-6.176 0-10.069 2.755-10.069 7.41 0 5.035 4.938 6.84 10.925 9.215l9.215 3.896c8.551 3.515 14.155 8.93 14.155 19.095 0 11.495-9.595 21.28-25.84 21.28-9.405-.001-18.81-3.706-25.65-10.261zM173.777 1.733h14.061v27.74h26.601V1.733h13.965V72.13h-13.965v-30.4h-26.601v30.4h-14.061V1.733z"/></g><path d="M.5 95.066h14.06v58.615h28.596v11.781H.5V95.066zM48.949 133.828V95.066H63.01v39.996c0 14.629 5.13 19.57 13.3 19.57 8.36 0 13.682-4.941 13.682-19.57V95.066h13.489v38.762c0 23.369-9.976 32.965-27.171 32.965-17.1 0-27.361-9.596-27.361-32.965zM112.219 156.533l8.075-9.691c5.035 4.656 11.685 7.791 17.859 7.791 7.314 0 11.21-3.135 11.21-8.076 0-5.225-4.274-6.84-10.545-9.5l-9.404-3.99c-7.125-2.943-14.25-8.644-14.25-18.903 0-11.495 10.068-20.33 24.319-20.33 8.17 0 16.341 3.229 22.04 9.024l-7.125 8.835c-4.466-3.705-9.12-5.795-14.915-5.795-6.176 0-10.069 2.755-10.069 7.41 0 5.035 4.938 6.84 10.925 9.215l9.215 3.896c8.551 3.515 14.155 8.93 14.155 19.094 0 11.496-9.595 21.281-25.84 21.281-9.405-.001-18.81-3.706-25.65-10.261zM173.777 95.066h14.061v27.74h26.601v-27.74h13.965v70.396h-13.965v-30.4h-26.601v30.4h-14.061V95.066z"/><g fill="none" stroke="#000" stroke-miterlimit="10"><path d="M.5 188.4h14.06v58.615h28.596v11.781H.5V188.4zM48.949 227.162V188.4H63.01v39.996c0 14.629 5.13 19.57 13.3 19.57 8.36 0 13.682-4.941 13.682-19.57V188.4h13.489v38.762c0 23.369-9.976 32.965-27.171 32.965-17.1 0-27.361-9.596-27.361-32.965zM112.219 249.867l8.075-9.691c5.035 4.656 11.685 7.791 17.859 7.791 7.314 0 11.21-3.135 11.21-8.076 0-5.225-4.274-6.84-10.545-9.5l-9.404-3.99c-7.125-2.943-14.25-8.645-14.25-18.904 0-11.494 10.068-20.33 24.319-20.33 8.17 0 16.341 3.23 22.04 9.025l-7.125 8.834c-4.466-3.705-9.12-5.795-14.915-5.795-6.176 0-10.069 2.756-10.069 7.41 0 5.035 4.938 6.84 10.925 9.215l9.215 3.896c8.551 3.514 14.155 8.93 14.155 19.094 0 11.496-9.595 21.281-25.84 21.281-9.405 0-18.81-3.705-25.65-10.26zM173.777 188.4h14.061v27.74h26.601V188.4h13.965v70.396h-13.965v-30.4h-26.601v30.4h-14.061V188.4z"/></g><g><path d="M262.61 1.684h14.06V60.3h28.596v11.779H262.61V1.684zM311.06 40.444V1.684h14.061v39.995c0 14.631 5.13 19.57 13.3 19.57 8.36 0 13.682-4.939 13.682-19.57V1.684h13.489v38.761c0 23.37-9.976 32.966-27.171 32.966-17.101-.001-27.361-9.597-27.361-32.967zM374.329 63.149l8.075-9.688c5.035 4.653 11.685 7.789 17.859 7.789 7.314 0 11.21-3.136 11.21-8.074 0-5.226-4.274-6.84-10.545-9.5l-9.404-3.99c-7.125-2.944-14.25-8.646-14.25-18.906 0-11.493 10.068-20.329 24.319-20.329 8.17 0 16.341 3.229 22.04 9.024l-7.125 8.836c-4.466-3.704-9.12-5.796-14.915-5.796-6.176 0-10.069 2.755-10.069 7.41 0 5.035 4.938 6.841 10.925 9.216l9.215 3.896c8.551 3.516 14.155 8.93 14.155 19.096 0 11.494-9.595 21.279-25.84 21.279-9.405-.002-18.81-3.707-25.65-10.263zM435.888 1.684h14.061v27.74h26.601V1.684h13.965V72.08H476.55v-30.4h-26.601v30.4h-14.061V1.684z"/></g><g fill="none" stroke="#000" stroke-miterlimit="10"><path d="M262.61 95.017h14.06v58.616h28.596v11.779H262.61V95.017zM311.06 133.777v-38.76h14.061v39.995c0 14.631 5.13 19.57 13.3 19.57 8.36 0 13.682-4.939 13.682-19.57V95.017h13.489v38.761c0 23.369-9.976 32.967-27.171 32.967-17.101-.001-27.361-9.599-27.361-32.968zM374.329 156.482l8.075-9.689c5.035 4.654 11.685 7.791 17.859 7.791 7.314 0 11.21-3.137 11.21-8.076 0-5.227-4.274-6.84-10.545-9.5l-9.404-3.99c-7.125-2.942-14.25-8.645-14.25-18.904 0-11.494 10.068-20.329 24.319-20.329 8.17 0 16.341 3.229 22.04 9.024l-7.125 8.835c-4.466-3.705-9.12-5.796-14.915-5.796-6.176 0-10.069 2.756-10.069 7.41 0 5.035 4.938 6.841 10.925 9.216l9.215 3.896c8.551 3.515 14.155 8.929 14.155 19.095 0 11.494-9.595 21.279-25.84 21.279-9.405 0-18.81-3.705-25.65-10.262zM435.888 95.017h14.061v27.74h26.601v-27.74h13.965v70.396H476.55v-30.4h-26.601v30.4h-14.061V95.017z"/></g><g fill="none" stroke="#000" stroke-miterlimit="10"><path d="M262.61 188.35h14.06v58.615h28.596v11.781H262.61V188.35zM311.06 227.111V188.35h14.061v39.996c0 14.631 5.13 19.57 13.3 19.57 8.36 0 13.682-4.939 13.682-19.57V188.35h13.489v38.762c0 23.369-9.976 32.967-27.171 32.967-17.101-.001-27.361-9.599-27.361-32.968zM374.329 249.816l8.075-9.689c5.035 4.654 11.685 7.791 17.859 7.791 7.314 0 11.21-3.137 11.21-8.076 0-5.225-4.274-6.84-10.545-9.5l-9.404-3.99c-7.125-2.943-14.25-8.645-14.25-18.904 0-11.496 10.068-20.33 24.319-20.33 8.17 0 16.341 3.229 22.04 9.023l-7.125 8.836c-4.466-3.705-9.12-5.795-14.915-5.795-6.176 0-10.069 2.756-10.069 7.41 0 5.035 4.938 6.84 10.925 9.215l9.215 3.896c8.551 3.514 14.155 8.93 14.155 19.094 0 11.496-9.595 21.281-25.84 21.281-9.405 0-18.81-3.705-25.65-10.262zM435.888 188.35h14.061v27.74h26.601v-27.74h13.965v70.396H476.55v-30.4h-26.601v30.4h-14.061V188.35z"/></g></svg>