<svg xmlns="http://www.w3.org/2000/svg" xmlns:xlink="http://www.w3.org/1999/xlink" width="228.903" height="540.629"><image overflow="visible" width="229" height="544" xlink:href="lush_txt.png" transform="translate(-593.6904 .7969)"/><g fill="none" stroke="#000" stroke-miterlimit="10"><path d="M.5 1.735h14.06v58.616h28.596v11.78H.5V1.735zM48.949 40.496V1.735H63.01V41.73c0 14.63 5.13 19.57 13.3 19.57 8.36 0 13.681-4.94 13.681-19.57V1.735h13.49v38.761c0 23.37-9.976 32.965-27.171 32.965-17.1 0-27.361-9.595-27.361-32.965zM112.219 63.201l8.075-9.69c5.035 4.655 11.685 7.79 17.86 7.79 7.314 0 11.21-3.135 11.21-8.075 0-5.225-4.275-6.84-10.545-9.5l-9.405-3.99c-7.125-2.945-14.25-8.645-14.25-18.905 0-11.495 10.069-20.33 24.32-20.33 8.17 0 16.34 3.23 22.04 9.025l-7.125 8.835c-4.466-3.705-9.12-5.795-14.915-5.795-6.176 0-10.07 2.755-10.07 7.41 0 5.035 4.939 6.84 10.925 9.215l9.215 3.895c8.551 3.515 14.155 8.93 14.155 19.095 0 11.495-9.595 21.28-25.84 21.28-9.405 0-18.81-3.705-25.65-10.26zM173.778 1.735h14.06v27.74h26.601V1.735h13.965v70.396h-13.965v-30.4h-26.601v30.4h-14.06V1.735z"/></g><path d="M.5 95.068h14.06v58.616h28.596v11.78H.5V95.068zM48.949 133.829V95.068H63.01v39.996c0 14.63 5.13 19.57 13.3 19.57 8.36 0 13.681-4.94 13.681-19.57V95.068h13.49v38.761c0 23.37-9.976 32.965-27.171 32.965-17.1 0-27.361-9.595-27.361-32.965zM112.219 156.534l8.075-9.69c5.035 4.655 11.685 7.79 17.86 7.79 7.314 0 11.21-3.135 11.21-8.075 0-5.225-4.275-6.84-10.545-9.5l-9.405-3.99c-7.125-2.945-14.25-8.645-14.25-18.905 0-11.495 10.069-20.33 24.32-20.33 8.17 0 16.34 3.23 22.04 9.025l-7.125 8.835c-4.466-3.705-9.12-5.795-14.915-5.795-6.176 0-10.07 2.755-10.07 7.41 0 5.035 4.939 6.84 10.925 9.215l9.215 3.895c8.551 3.515 14.155 8.93 14.155 19.095 0 11.495-9.595 21.28-25.84 21.28-9.405 0-18.81-3.705-25.65-10.26zM173.778 95.068h14.06v27.74h26.601v-27.74h13.965v70.396h-13.965v-30.4h-26.601v30.4h-14.06V95.068z"/><g fill="none" stroke="#000" stroke-miterlimit="10"><path d="M.5 188.402h14.06v58.616h28.596v11.78H.5v-70.396zM48.949 227.163v-38.761H63.01v39.996c0 14.63 5.13 19.57 13.3 19.57 8.36 0 13.681-4.94 13.681-19.57v-39.996h13.49v38.761c0 23.37-9.976 32.965-27.171 32.965-17.1 0-27.361-9.595-27.361-32.965zM112.219 249.868l8.075-9.69c5.035 4.655 11.685 7.79 17.86 7.79 7.314 0 11.21-3.135 11.21-8.075 0-5.225-4.275-6.84-10.545-9.5l-9.405-3.99c-7.125-2.945-14.25-8.645-14.25-18.905 0-11.495 10.069-20.33 24.32-20.33 8.17 0 16.34 3.23 22.04 9.025l-7.125 8.835c-4.466-3.705-9.12-5.795-14.915-5.795-6.176 0-10.07 2.755-10.07 7.41 0 5.035 4.939 6.84 10.925 9.215l9.215 3.895c8.551 3.515 14.155 8.93 14.155 19.095 0 11.495-9.595 21.28-25.84 21.28-9.405 0-18.81-3.705-25.65-10.26zM173.778 188.402h14.06v27.74h26.601v-27.74h13.965v70.396h-13.965v-30.4h-26.601v30.4h-14.06v-70.396z"/></g><g><path d="M.5 281.735h14.06v58.616h28.596v11.779H.5v-70.395zM48.949 320.496v-38.761H63.01v39.995c0 14.631 5.13 19.57 13.3 19.57 8.36 0 13.681-4.939 13.681-19.57v-39.995h13.49v38.761c0 23.37-9.976 32.965-27.171 32.965-17.1 0-27.361-9.595-27.361-32.965zM112.219 343.201l8.075-9.689c5.035 4.654 11.685 7.789 17.86 7.789 7.314 0 11.21-3.135 11.21-8.074 0-5.226-4.275-6.84-10.545-9.5l-9.405-3.99c-7.125-2.945-14.25-8.646-14.25-18.906 0-11.494 10.069-20.33 24.32-20.33 8.17 0 16.34 3.23 22.04 9.025l-7.125 8.836c-4.466-3.705-9.12-5.796-14.915-5.796-6.176 0-10.07 2.755-10.07 7.41 0 5.035 4.939 6.841 10.925 9.216l9.215 3.895c8.551 3.516 14.155 8.93 14.155 19.096 0 11.494-9.595 21.279-25.84 21.279-9.405-.001-18.81-3.706-25.65-10.261zM173.778 281.735h14.06v27.74h26.601v-27.74h13.965v70.396h-13.965v-30.4h-26.601v30.4h-14.06v-70.396z"/></g><g fill="none" stroke="#000" stroke-miterlimit="10"><path d="M.5 375.068h14.06v58.616h28.596v11.78H.5v-70.396zM48.949 413.83v-38.762H63.01v39.996c0 14.631 5.13 19.57 13.3 19.57 8.36 0 13.681-4.939 13.681-19.57v-39.996h13.49v38.762c0 23.369-9.976 32.965-27.171 32.965-17.1 0-27.361-9.596-27.361-32.965zM112.219 436.535l8.075-9.69c5.035 4.655 11.685 7.79 17.86 7.79 7.314 0 11.21-3.135 11.21-8.075 0-5.226-4.275-6.84-10.545-9.5l-9.405-3.99c-7.125-2.944-14.25-8.646-14.25-18.905 0-11.495 10.069-20.33 24.32-20.33 8.17 0 16.34 3.23 22.04 9.025l-7.125 8.835c-4.466-3.705-9.12-5.796-14.915-5.796-6.176 0-10.07 2.756-10.07 7.41 0 5.035 4.939 6.841 10.925 9.216l9.215 3.896c8.551 3.515 14.155 8.93 14.155 19.095 0 11.495-9.595 21.28-25.84 21.28-9.405-.001-18.81-3.706-25.65-10.261zM173.778 375.068h14.06v27.74h26.601v-27.74h13.965v70.396h-13.965v-30.4h-26.601v30.4h-14.06v-70.396z"/></g><g fill="none" stroke="#000" stroke-miterlimit="10"><path d="M.5 468.402h14.06v58.615h28.596v11.781H.5v-70.396zM48.949 507.163v-38.761H63.01v39.996c0 14.63 5.13 19.57 13.3 19.57 8.36 0 13.681-4.94 13.681-19.57v-39.996h13.49v38.761c0 23.37-9.976 32.966-27.171 32.966-17.1 0-27.361-9.596-27.361-32.966zM112.219 529.868l8.075-9.69c5.035 4.655 11.685 7.791 17.86 7.791 7.314 0 11.21-3.136 11.21-8.076 0-5.225-4.275-6.84-10.545-9.5l-9.405-3.99c-7.125-2.944-14.25-8.645-14.25-18.904 0-11.496 10.069-20.33 24.32-20.33 8.17 0 16.34 3.229 22.04 9.024l-7.125 8.835c-4.466-3.705-9.12-5.795-14.915-5.795-6.176 0-10.07 2.756-10.07 7.41 0 5.035 4.939 6.84 10.925 9.215l9.215 3.896c8.551 3.515 14.155 8.931 14.155 19.095 0 11.496-9.595 21.281-25.84 21.281-9.405-.001-18.81-3.706-25.65-10.262zM173.778 468.402h14.06v27.74h26.601v-27.74h13.965v70.396h-13.965v-30.4h-26.601v30.4h-14.06v-70.396z"/></g></svg>