<svg xmlns="http://www.w3.org/2000/svg" xmlns:xlink="http://www.w3.org/1999/xlink" width="595.237" height="595.281" viewBox="123.304 0 595.237 595.281"><path d="M710.447 514.709L594.53 398.792c-5.232-5.232-12.324-8.139-19.766-8.139h-18.951c32.089-41.042 51.157-92.664 51.157-148.82C606.97 108.243 498.726 0 365.137 0c-133.59 0-241.833 108.243-241.833 241.833 0 133.589 108.243 241.833 241.833 241.833 56.156 0 107.778-19.068 148.82-51.157v18.951c0 7.441 2.906 14.533 8.139 19.766l115.917 115.917c10.929 10.929 28.601 10.929 39.414 0l32.902-32.903c10.931-10.931 10.931-28.603.118-39.531zm-345.31-124.056c-82.2 0-148.82-66.504-148.82-148.82 0-82.2 66.504-148.82 148.82-148.82 82.2 0 148.82 66.504 148.82 148.82.001 82.2-66.503 148.82-148.82 148.82z"/><image overflow="visible" width="26" height="26" xlink:href="search_icon.png" transform="translate(-361.9924 111.1326) scale(12.8131)"/><path d="M552.945 354.14l60.467 63.534-83.434 61.433-50.408-51.342z"/></svg>