<svg xmlns="http://www.w3.org/2000/svg" xmlns:xlink="http://www.w3.org/1999/xlink" width="691.135" height="596.524" viewBox="55.31 640.468 691.135 596.524"><image overflow="visible" width="31" height="26" xlink:href="shopping_icon.png" transform="translate(926.7551 -.00097656) scale(22.9119)"/><path d="M360.778 1219.608h219.333v16.564H360.778v-16.564z"/><circle fill="none" stroke="#000" stroke-width="24" stroke-miterlimit="10" cx="573.112" cy="1063.659" r="161.333"/><path stroke="#000" stroke-width="3" stroke-miterlimit="10" d="M520.805 1061.731c0-52.578 22.473-79.29 55.969-79.29 33.285 0 55.758 26.925 55.758 79.29 0 52.577-22.473 80.562-55.758 80.562-33.496 0-55.969-27.984-55.969-80.562zm76.108 0c0-41.555-8.903-50.033-20.141-50.033s-20.353 8.479-20.353 50.033c0 41.553 9.115 51.305 20.353 51.305s20.141-9.752 20.141-51.305z"/><path d="M411.779 1065.039c0-89.104 72.231-161.333 161.333-161.333 1.026 0 2.049.02 3.07.039v-77.253H464.566v-37.205c0-82.061-66.761-148.819-148.821-148.819s-148.818 66.76-148.818 148.819v37.205H55.31v316.243c0 51.368 41.646 93.014 93.013 93.014H483.17c18.304 0 35.37-5.291 49.762-14.423-69.662-17.856-121.153-81.057-121.153-156.287zM204.13 928.807c-15.411 0-27.903-12.491-27.903-27.901 0-15.412 12.492-27.904 27.903-27.904s27.903 12.492 27.903 27.904c0 15.408-12.492 27.901-27.903 27.901zm186.025-102.315h-148.82v-37.205c0-41.029 33.38-74.409 74.408-74.409 41.03 0 74.41 33.38 74.41 74.409l.002 37.205zm9.299 74.412c0-15.412 12.493-27.904 27.905-27.904 15.41 0 27.902 12.492 27.902 27.904 0 15.409-12.492 27.901-27.902 27.901-15.411.002-27.905-12.491-27.905-27.901z"/></svg>